<svg width="145" height="145" viewBox="0 0 145 145" fill="none" xmlns="http://www.w3.org/2000/svg">
<rect width="145" height="145" rx="8" fill="url(#paint0_linear_2117_25)"/>
<path d="M30.7677 32.6577C35.5107 32.6577 39.3282 36.5877 39.3282 41.3269C39.3282 46.0661 35.5107 49.8806 30.7677 49.8806C26.0247 49.8806 22.2072 46.0661 22.2072 41.3269C22.2072 36.5877 26.0247 32.6577 30.7677 32.6577ZM22.2072 113.571V53.4639H39.3282V113.571H22.2072Z" fill="white"/>
<path d="M124.099 73.1142C124.099 81.0899 121.785 88.8344 117.389 95.5387C119.587 96.1166 121.901 96.4634 124.099 96.4634V113.571C117.042 113.686 109.986 111.721 103.855 108.254C88.0061 117.385 67.993 114.727 55.0366 101.781C42.0802 88.8344 39.4195 68.8374 48.5584 53.0015C57.813 37.1657 76.4379 29.4211 94.1373 34.1603C111.837 38.8995 124.099 54.851 124.099 73.1142ZM103.855 84.7888C109.407 75.0792 107.325 62.8267 98.8803 55.5445C90.3198 48.2623 77.9417 47.9155 69.1499 54.9665C60.358 61.902 57.813 74.0389 63.0187 83.9797C68.1087 93.9204 79.677 98.7752 90.3198 95.5387C85.9238 88.8344 83.6102 81.0899 83.6102 73.1142H100.847C100.731 77.2754 101.888 81.2055 103.855 84.7888Z" fill="white"/>
<defs>
<linearGradient id="paint0_linear_2117_25" x1="72.5" y1="0" x2="72.5" y2="145" gradientUnits="userSpaceOnUse">
<stop stop-color="#F90000"/>
<stop offset="1" stop-color="#D62F2F"/>
</linearGradient>
</defs>
</svg>
